# xmcd
#
# Track frame offsets: 
#        150
#        16265
#        24205
#        47421
#        63710
#        74678
#        93933
#        111843
#        131655
#        152052
#        166697
#        184788
#        202720
#        218105
#        235131
#        252801
#        261716
#        272820
#        290552
#        305725
#        318910
#        331526
#
# Disc length: 4751 seconds
#
# Revision: 9
# Processed by: cddbd v1.5.2PL0 Copyright (c) Steve Scherf et al.
# Submitted via: ExactAudioCopyFreeDBPlugin 1.0
#
DISCID=37128d16
DTITLE=John Mayall - Crusade [Remastered 2007]
DYEAR=1967
DGENRE=Blues
TTITLE0=Oh Pretty Woman
TTITLE1=Stand Back Baby
TTITLE2=My Time After Awhile
TTITLE3=Snowy Wood
TTITLE4=Man of Stone
TTITLE5=Tears in My Eyes
TTITLE6=Driving Sideways
TTITLE7=The Death of JB Lenoir
TTITLE8=I Can't Quit You Baby
TTITLE9=Streamline
TTITLE10=Me and My Woman
TTITLE11=Checkin Up on My Baby
TTITLE12=Curly
TTITLE13=Rubber Duck
TTITLE14=Greeny
TTITLE15=Missing You
TTITLE16=Please Don't Tell
TTITLE17=Your Funeral My Trial
TTITLE18=Double Trouble
TTITLE19=It Hurts Me Too
TTITLE20=Suspicions 1
TTITLE21=Suspicions 2
EXTD=
EXTT0=
EXTT1=
EXTT2=
EXTT3=
EXTT4=
EXTT5=
EXTT6=
EXTT7=
EXTT8=
EXTT9=
EXTT10=
EXTT11=
EXTT12=
EXTT13=
EXTT14=
EXTT15=
EXTT16=
EXTT17=
EXTT18=
EXTT19=
EXTT20=
EXTT21=
PLAYORDER=
